<svg viewBox="0 0 82 84" height="84.0pt" width="82.0pt" xmlns="http://www.w3.org/2000/svg" version="1.1">
<path d="M0.00 0.00L62.98 0.00C44.28 9.60 25.55 19.16 6.91 28.84C9.33 35.19 12.00 41.44 14.44 47.78C11.48 49.31 8.59 50.94 5.52 52.25C9.02 62.36 13.57 72.10 17.05 82.21Q18.66 82.40 20.27 82.59L20.68 82.66C23.88 83.76 26.99 83.41 30.23 82.78C31.79 82.23 33.88 82.76 34.22 80.70C31.55 80.60 29.06 79.92 26.45 79.52C32.78 76.18 38.96 72.55 45.28 69.21C49.32 67.17 53.17 64.79 57.21 62.75C58.69 61.94 60.14 61.39 61.25 60.07C60.23 57.40 59.20 54.73 58.18 52.06C65.49 47.81 72.98 43.85 80.34 39.69L81.54 39.02C76.75 25.97 71.74 12.98 66.79 0.00L82.00 0.00L82.00 84.00L0.00 84.00L0.00 0.00Z" fill="#ffffff" />
<path d="M62.98 0.00L65.94 0.00C56.53 5.04 46.97 9.81 37.51 14.76C30.50 18.21 23.64 21.98 16.65 25.47C14.33 26.52 12.12 27.74 9.97 29.09C12.22 34.90 14.58 40.71 17.01 46.45C16.15 46.90 15.30 47.34 14.44 47.78C12.00 41.44 9.33 35.19 6.91 28.84C25.55 19.16 44.28 9.60 62.98 0.00Z" fill="#007493" />
<path d="M65.94 0.00L66.79 0.00C71.74 12.98 76.75 25.97 81.54 39.02L80.34 39.69C79.14 39.23 78.15 38.45 77.12 37.69L76.48 37.07C75.96 35.14 75.36 33.25 74.60 31.41C71.20 22.91 68.21 14.25 64.70 5.80Q63.26 6.41 61.84 7.07C54.93 10.66 48.05 14.31 41.11 17.84C39.95 16.76 38.79 15.70 37.51 14.76C46.97 9.81 56.53 5.04 65.94 0.00Z" fill="#52c8ef" />
<path d="M64.70 5.80C68.21 14.25 71.20 22.91 74.60 31.41C75.36 33.25 75.96 35.14 76.48 37.07C69.80 40.59 63.20 44.28 56.60 47.96Q56.27 47.08 55.93 46.21C61.65 42.99 67.51 40.01 73.18 36.70C69.49 26.81 65.79 16.85 61.84 7.07Q63.26 6.41 64.70 5.80Z" fill="#007493" />
<path d="M61.84 7.07C65.79 16.85 69.49 26.81 73.18 36.70C67.51 40.01 61.65 42.99 55.93 46.21Q55.41 44.87 54.89 43.53Q56.29 42.77 57.69 42.03C60.28 40.67 62.85 39.30 65.36 37.80C62.82 30.82 59.97 23.95 57.42 16.96L57.07 16.94Q55.16 16.67 53.16 16.90C43.76 21.81 34.41 26.85 24.91 31.56C25.97 34.59 27.21 37.56 28.42 40.50C25.85 41.88 23.26 43.22 20.67 44.56C18.95 40.09 17.07 35.70 15.37 31.23C17.42 30.04 19.51 28.96 21.63 27.93C28.17 24.66 34.59 21.14 41.11 17.84C48.05 14.31 54.93 10.66 61.84 7.07Z" fill="#ffffff" />
<path d="M37.51 14.76C38.79 15.70 39.95 16.76 41.11 17.84C34.59 21.14 28.17 24.66 21.63 27.93C19.99 27.04 18.38 26.17 16.65 25.47C23.64 21.98 30.50 18.21 37.51 14.76Z" fill="#3dc0e9" />
<path d="M53.16 16.90Q55.16 16.67 57.07 16.94C50.96 20.19 44.88 23.52 38.72 26.67C36.68 27.70 34.65 28.72 32.61 29.74C31.19 30.44 29.80 31.20 28.43 31.99C31.15 39.12 34.28 46.04 36.51 53.37Q34.86 53.10 33.21 52.86C32.39 50.56 31.48 48.29 30.58 46.02C30.05 44.65 29.54 43.27 28.98 41.92L28.42 40.50C27.21 37.56 25.97 34.59 24.91 31.56C34.41 26.85 43.76 21.81 53.16 16.90Z" fill="#5e005c" />
<path d="M57.07 16.94L57.42 16.96C59.97 23.95 62.82 30.82 65.36 37.80C62.85 39.30 60.28 40.67 57.69 42.03C56.49 41.04 55.29 39.90 53.91 39.18C55.90 37.97 58.95 37.08 60.08 34.96C58.31 30.93 57.15 26.49 54.97 22.68Q53.79 23.29 52.60 23.90C48.81 25.86 45.09 27.94 41.29 29.88C40.44 28.81 39.58 27.74 38.72 26.67C44.88 23.52 50.96 20.19 57.07 16.94Z" fill="#ad5ba3" />
<path d="M54.97 22.68C57.15 26.49 58.31 30.93 60.08 34.96C58.95 37.08 55.90 37.97 53.91 39.18C52.09 40.09 50.31 41.09 48.51 42.03C45.29 43.68 42.13 45.47 38.90 47.10Q38.44 46.42 38.09 45.69C40.83 44.21 43.58 42.74 46.32 41.27C47.40 40.70 48.47 40.11 49.56 39.55C50.62 38.98 51.68 38.39 52.75 37.82C54.15 37.08 55.55 36.32 56.96 35.57C55.64 31.63 53.96 27.83 52.60 23.90Q53.79 23.29 54.97 22.68Z" fill="#5e005c" />
<path d="M52.60 23.90C53.96 27.83 55.64 31.63 56.96 35.57C55.55 36.32 54.15 37.08 52.75 37.82C51.84 35.62 51.19 33.23 50.04 31.15L49.84 31.14Q48.11 31.09 46.40 31.22C42.39 33.08 38.55 35.30 34.60 37.28Q33.94 35.66 33.51 33.98L35.10 33.09C37.15 32.00 39.23 30.95 41.29 29.88C45.09 27.94 48.81 25.86 52.60 23.90Z" fill="#ffffff" />
<path d="M16.65 25.47C18.38 26.17 19.99 27.04 21.63 27.93C19.51 28.96 17.42 30.04 15.37 31.23C17.07 35.70 18.95 40.09 20.67 44.56C19.45 45.19 18.23 45.82 17.01 46.45C14.58 40.71 12.22 34.90 9.97 29.09C12.12 27.74 14.33 26.52 16.65 25.47Z" fill="#21b5e1" />
<path d="M38.72 26.67C39.58 27.74 40.44 28.81 41.29 29.88C39.23 30.95 37.15 32.00 35.10 33.09C34.27 31.97 33.44 30.86 32.61 29.74C34.65 28.72 36.68 27.70 38.72 26.67Z" fill="#993b94" />
<path d="M32.61 29.74C33.44 30.86 34.27 31.97 35.10 33.09L33.51 33.98Q33.94 35.66 34.60 37.28L35.22 38.81C35.79 40.15 36.31 41.50 36.85 42.85Q37.43 44.29 38.09 45.69Q38.44 46.42 38.90 47.10C42.13 45.47 45.29 43.68 48.51 42.03C49.31 43.24 50.12 44.45 50.95 45.65Q49.81 46.26 48.68 46.89C44.62 49.04 40.64 51.36 36.51 53.37C34.28 46.04 31.15 39.12 28.43 31.99C29.80 31.20 31.19 30.44 32.61 29.74Z" fill="#8a2488" />
<path d="M46.40 31.22Q48.11 31.09 49.84 31.14C45.05 33.84 40.17 36.38 35.22 38.81L34.60 37.28C38.55 35.30 42.39 33.08 46.40 31.22Z" fill="#74953f" />
<path d="M49.84 31.14L50.04 31.15C51.19 33.23 51.84 35.62 52.75 37.82C51.68 38.39 50.62 38.98 49.56 39.55Q48.85 38.19 47.93 36.99Q46.71 37.62 45.49 38.28C42.65 39.88 39.72 41.32 36.85 42.85C36.31 41.50 35.79 40.15 35.22 38.81C40.17 36.38 45.05 33.84 49.84 31.14Z" fill="#c8ea71" />
<path d="M47.93 36.99Q48.85 38.19 49.56 39.55C48.47 40.11 47.40 40.70 46.32 41.27L45.49 38.28Q46.71 37.62 47.93 36.99Z" fill="#678033" />
<path d="M76.48 37.07L77.12 37.69C78.15 38.45 79.14 39.23 80.34 39.69C72.98 43.85 65.49 47.81 58.18 52.06C57.66 50.69 57.13 49.33 56.60 47.96C63.20 44.28 69.80 40.59 76.48 37.07Z" fill="#40c1ea" />
<path d="M45.49 38.28L46.32 41.27C43.58 42.74 40.83 44.21 38.09 45.69Q37.43 44.29 36.85 42.85C39.72 41.32 42.65 39.88 45.49 38.28Z" fill="#ffffff" />
<path d="M53.91 39.18C55.29 39.90 56.49 41.04 57.69 42.03Q56.29 42.77 54.89 43.53Q53.16 44.49 51.40 45.41L50.95 45.65C50.12 44.45 49.31 43.24 48.51 42.03C50.31 41.09 52.09 40.09 53.91 39.18Z" fill="#9a3d95" />
<path d="M28.42 40.50L28.98 41.92C23.41 44.65 18.15 47.97 12.52 50.56C11.35 51.07 10.19 51.62 9.05 52.19C8.75 53.57 9.39 54.88 9.84 56.15C13.37 64.94 17.04 73.69 20.27 82.59Q18.66 82.40 17.05 82.21C13.57 72.10 9.02 62.36 5.52 52.25C8.59 50.94 11.48 49.31 14.44 47.78C15.30 47.34 16.15 46.90 17.01 46.45C18.23 45.82 19.45 45.19 20.67 44.56C23.26 43.22 25.85 41.88 28.42 40.50Z" fill="#5b8023" />
<path d="M28.98 41.92C29.54 43.27 30.05 44.65 30.58 46.02C27.96 47.38 25.40 48.86 22.77 50.20C21.52 50.84 20.29 51.52 19.02 52.12L18.39 52.42C16.41 51.79 14.53 51.06 12.52 50.56C18.15 47.97 23.41 44.65 28.98 41.92Z" fill="#a9d354" />
<path d="M54.89 43.53Q55.41 44.87 55.93 46.21Q56.27 47.08 56.60 47.96C57.13 49.33 57.66 50.69 58.18 52.06C59.20 54.73 60.23 57.40 61.25 60.07C60.14 61.39 58.69 61.94 57.21 62.75C55.78 61.88 54.34 60.92 52.79 60.30C54.01 59.65 55.19 58.97 56.27 58.09C54.70 53.85 53.12 49.59 51.40 45.41Q53.16 44.49 54.89 43.53Z" fill="#c2e56b" />
<path d="M50.95 45.65L51.40 45.41C53.12 49.59 54.70 53.85 56.27 58.09C55.19 58.97 54.01 59.65 52.79 60.30C49.01 62.10 45.48 64.36 41.73 66.21C35.39 69.47 29.28 73.18 22.90 76.34L21.96 74.91C32.29 69.29 42.69 63.81 52.95 58.09Q52.45 56.75 51.95 55.40C51.45 54.06 50.93 52.74 50.43 51.41Q50.07 50.49 49.71 49.57Q49.20 48.23 48.68 46.89Q49.81 46.26 50.95 45.65Z" fill="#5b8023" />
<path d="M30.58 46.02C31.48 48.29 32.39 50.56 33.21 52.86Q34.86 53.10 36.51 53.37C40.64 51.36 44.62 49.04 48.68 46.89Q49.20 48.23 49.71 49.57C42.27 53.52 34.92 57.61 27.51 61.61C25.86 57.85 24.61 53.87 22.77 50.20C25.40 48.86 27.96 47.38 30.58 46.02Z" fill="#ffffff" />
<path d="M22.77 50.20C24.61 53.87 25.86 57.85 27.51 61.61L28.20 63.26C32.47 61.50 36.40 58.91 40.51 56.79C41.40 57.91 42.30 59.03 43.20 60.14C37.56 63.18 32.01 66.41 26.34 69.41C23.53 63.82 21.79 57.71 19.02 52.12C20.29 51.52 21.52 50.84 22.77 50.20Z" fill="#05abd8" />
<path d="M49.71 49.57Q50.07 50.49 50.43 51.41C47.09 53.14 43.81 54.99 40.51 56.79C36.40 58.91 32.47 61.50 28.20 63.26L27.51 61.61C34.92 57.61 42.27 53.52 49.71 49.57Z" fill="#14819e" />
<path d="M12.52 50.56C14.53 51.06 16.41 51.79 18.39 52.42Q17.52 52.87 16.67 53.34Q15.29 54.10 13.91 54.86C16.63 61.52 19.07 68.32 21.96 74.91L22.90 76.34C29.28 73.18 35.39 69.47 41.73 66.21C42.91 67.22 44.09 68.21 45.28 69.21C38.96 72.55 32.78 76.18 26.45 79.52C24.48 80.48 22.61 81.61 20.68 82.66L20.27 82.59C17.04 73.69 13.37 64.94 9.84 56.15C9.39 54.88 8.75 53.57 9.05 52.19C10.19 51.62 11.35 51.07 12.52 50.56Z" fill="#8fc03b" />
<path d="M18.39 52.42L19.02 52.12C21.79 57.71 23.53 63.82 26.34 69.41Q24.68 69.16 23.02 68.91C20.82 63.75 18.86 58.50 16.67 53.34Q17.52 52.87 18.39 52.42Z" fill="#007493" />
<path d="M50.43 51.41C50.93 52.74 51.45 54.06 51.95 55.40C49.00 56.92 46.14 58.59 43.20 60.14C42.30 59.03 41.40 57.91 40.51 56.79C43.81 54.99 47.09 53.14 50.43 51.41Z" fill="#20b5e0" />
<path d="M16.67 53.34C18.86 58.50 20.82 63.75 23.02 68.91Q24.68 69.16 26.34 69.41C32.01 66.41 37.56 63.18 43.20 60.14C46.14 58.59 49.00 56.92 51.95 55.40Q52.45 56.75 52.95 58.09C42.69 63.81 32.29 69.29 21.96 74.91C19.07 68.32 16.63 61.52 13.91 54.86Q15.29 54.10 16.67 53.34Z" fill="#ffffff" />
<path d="M52.79 60.30C54.34 60.92 55.78 61.88 57.21 62.75C53.17 64.79 49.32 67.17 45.28 69.21C44.09 68.21 42.91 67.22 41.73 66.21C45.48 64.36 49.01 62.10 52.79 60.30Z" fill="#add657" />
<path d="M26.45 79.52C29.06 79.92 31.55 80.60 34.22 80.70C33.88 82.76 31.79 82.23 30.23 82.78C26.99 83.41 23.88 83.76 20.68 82.66C22.61 81.61 24.48 80.48 26.45 79.52Z" fill="#dbdbdd" /></svg>